<svg width="100" height="100" viewBox="0 0 100 100" fill="none" xmlns="http://www.w3.org/2000/svg">
<path d="M84 50.5C84 67.897 69.0015 82 50.5 82C31.9985 82 17 67.897 17 50.5C17 33.103 31.9985 19 50.5 19C69.0015 19 84 33.103 84 50.5Z" fill="white"/>
<path fill-rule="evenodd" clip-rule="evenodd" d="M50.0006 91.6668C73.0125 91.6668 91.6673 73.012 91.6673 50.0002C91.6673 26.9883 73.0125 8.3335 50.0006 8.3335C26.9888 8.3335 8.33398 26.9883 8.33398 50.0002C8.33398 73.012 26.9888 91.6668 50.0006 91.6668ZM37.4108 68.877H27.6362C25.3187 68.877 24.1599 68.877 23.466 68.4282C22.716 67.9432 22.2428 67.1293 22.1926 66.2382C22.1462 65.4135 22.7201 64.4079 23.8679 62.3971L23.8685 62.3963L45.2694 24.9042C46.4341 22.8635 47.0166 21.8432 47.7577 21.4633C48.5582 21.053 49.5076 21.0523 50.3087 21.4615C51.0503 21.8402 51.6342 22.8598 52.8019 24.8987L57.7377 33.5164L57.7379 33.5166C58.587 34.9991 59.0116 35.7405 59.1983 36.5226C59.4016 37.3741 59.4019 38.2611 59.1995 39.1126C59.0135 39.8949 58.5895 40.6368 57.7415 42.1202L44.9439 64.508C44.0837 66.0132 43.6535 66.7657 43.0641 67.3282C42.4226 67.9405 41.6446 68.3918 40.7943 68.6448C40.013 68.877 39.1456 68.877 37.4108 68.877ZM72.2837 68.877H60.9511C58.6127 68.877 57.4433 68.877 56.7471 68.4243C55.9949 67.9351 55.5231 67.1152 55.4787 66.2198C55.4375 65.3911 56.026 64.3813 57.203 62.3622L62.8598 52.6569C64.022 50.6634 64.6031 49.6666 65.3387 49.2932C66.1338 48.8897 67.0739 48.889 67.8696 49.2912C68.606 49.6635 69.1883 50.6595 70.353 52.6511L70.3533 52.6518L76.0289 62.3568C77.2104 64.3772 77.8011 65.3875 77.7608 66.2168C77.7171 67.113 77.2456 67.9338 76.493 68.4238C75.7968 68.877 74.6258 68.877 72.2837 68.877Z" fill="black"/>
</svg>
